<svg width="26" height="26" viewBox="0 0 26 26" fill="none" xmlns="http://www.w3.org/2000/svg">
<path d="M18.8572 12.9889C18.8844 10.473 18.462 9.11999 17.6917 8.34968C16.9183 7.5762 15.5475 7.14258 12.9999 7.14258C10.4527 7.14258 9.0976 7.57611 8.33134 8.34738C7.56355 9.12018 7.1428 10.477 7.1428 12.9997C7.1428 15.5224 7.56355 16.8793 8.33134 17.6521C9.09759 18.4233 10.4527 18.8569 12.9999 18.8569C15.5468 18.8569 16.8863 18.4234 17.6454 17.6544C18.4107 16.879 18.8298 15.5184 18.8572 12.9889Z" stroke="#FFC12D" stroke-width="2" stroke-linecap="round" stroke-linejoin="round"/>
<path d="M12 24.1426C12 24.6949 12.4477 25.1426 13 25.1426C13.5523 25.1426 14 24.6949 14 24.1426L12 24.1426ZM14 22.4283C14 21.876 13.5523 21.4283 13 21.4283C12.4477 21.4283 12 21.876 12 22.4283L14 22.4283ZM14 24.1426L14 22.4283L12 22.4283L12 24.1426L14 24.1426Z" fill="#FFC12D"/>
<path d="M12 3.57227C12 4.12455 12.4477 4.57227 13 4.57227C13.5523 4.57227 14 4.12455 14 3.57227L12 3.57227ZM14 1.85798C14 1.30569 13.5523 0.857975 13 0.857975C12.4477 0.857975 12 1.30569 12 1.85797L14 1.85798ZM14 3.57227L14 1.85798L12 1.85797L12 3.57227L14 3.57227Z" fill="#FFC12D"/>
<path d="M1.85693 12C1.30465 12 0.856934 12.4477 0.856934 13C0.856934 13.5523 1.30465 14 1.85693 14L1.85693 12ZM3.57122 14C4.1235 14 4.57122 13.5523 4.57122 13C4.57122 12.4477 4.1235 12 3.57122 12L3.57122 14ZM1.85693 14L3.57122 14L3.57122 12L1.85693 12L1.85693 14Z" fill="#FFC12D"/>
<path d="M22.4287 12C21.8764 12 21.4287 12.4477 21.4287 13C21.4287 13.5523 21.8764 14 22.4287 14L22.4287 12ZM24.143 14C24.6953 14 25.143 13.5523 25.143 13C25.143 12.4477 24.6953 12 24.143 12L24.143 14ZM22.4287 14L24.143 14L24.143 12L22.4287 12L22.4287 14Z" fill="#FFC12D"/>
<path d="M20.8642 22.2794C21.2547 22.6699 21.8879 22.6699 22.2784 22.2794C22.6689 21.8888 22.6689 21.2557 22.2784 20.8652L20.8642 22.2794ZM21.0662 19.653C20.6757 19.2625 20.0425 19.2625 19.652 19.653C19.2615 20.0435 19.2615 20.6767 19.652 21.0672L21.0662 19.653ZM22.2784 20.8652L21.0662 19.653L19.652 21.0672L20.8642 22.2794L22.2784 20.8652Z" fill="#FFC12D"/>
<path d="M20.8642 3.36711C21.2547 2.97659 21.8879 2.97659 22.2784 3.36711C22.6689 3.75764 22.6689 4.3908 22.2784 4.78133L20.8642 3.36711ZM21.0662 5.99351C20.6757 6.38403 20.0425 6.38403 19.652 5.99351C19.2615 5.60298 19.2615 4.96982 19.652 4.57929L21.0662 5.99351ZM22.2784 4.78133L21.0662 5.99351L19.652 4.57929L20.8642 3.36711L22.2784 4.78133Z" fill="#FFC12D"/>
<path d="M4.78084 22.2794C4.39031 22.6699 3.75715 22.6699 3.36662 22.2794C2.9761 21.8888 2.9761 21.2557 3.36662 20.8652L4.78084 22.2794ZM4.57881 19.653C4.96933 19.2625 5.6025 19.2625 5.99302 19.653C6.38355 20.0435 6.38354 20.6767 5.99302 21.0672L4.57881 19.653ZM3.36662 20.8652L4.57881 19.653L5.99302 21.0672L4.78084 22.2794L3.36662 20.8652Z" fill="#FFC12D"/>
<path d="M4.78084 3.36711C4.39031 2.97659 3.75715 2.97659 3.36662 3.36711C2.9761 3.75764 2.9761 4.3908 3.36662 4.78132L4.78084 3.36711ZM4.57881 5.99351C4.96933 6.38403 5.6025 6.38403 5.99302 5.99351C6.38355 5.60298 6.38355 4.96982 5.99302 4.57929L4.57881 5.99351ZM3.36662 4.78132L4.57881 5.99351L5.99302 4.57929L4.78084 3.36711L3.36662 4.78132Z" fill="#FFC12D"/>
</svg>
